<mxfile host="Electron" modified="2023-11-12T16:21:53.419Z" agent="Mozilla/5.0 (Windows NT 10.0; Win64; x64) AppleWebKit/537.36 (KHTML, like Gecko) draw.io/22.0.3 Chrome/114.0.5735.289 Electron/25.8.4 Safari/537.36" etag="I6rpK2nZbNQJVWoJWiEY" version="22.0.3" type="device" pages="3">
  <diagram name="User" id="13e1069c-82ec-6db2-03f1-153e76fe0fe0">
    <mxGraphModel dx="1434" dy="836" grid="1" gridSize="10" guides="1" tooltips="1" connect="1" arrows="1" fold="1" page="1" pageScale="1" pageWidth="1100" pageHeight="850" background="none" math="0" shadow="0">
      <root>
        <mxCell id="0" />
        <mxCell id="1" parent="0" />
        <mxCell id="7baba1c4bc27f4b0-2" value="rent-service" style="shape=umlLifeline;perimeter=lifelinePerimeter;whiteSpace=wrap;html=1;container=1;collapsible=0;recursiveResize=0;outlineConnect=0;rounded=1;shadow=0;comic=0;labelBackgroundColor=none;strokeWidth=1;fontFamily=Verdana;fontSize=12;align=center;" parent="1" vertex="1">
          <mxGeometry x="355" y="50" width="100" height="290" as="geometry" />
        </mxCell>
        <mxCell id="7baba1c4bc27f4b0-3" value="user-service" style="shape=umlLifeline;perimeter=lifelinePerimeter;whiteSpace=wrap;html=1;container=1;collapsible=0;recursiveResize=0;outlineConnect=0;rounded=1;shadow=0;comic=0;labelBackgroundColor=none;strokeWidth=1;fontFamily=Verdana;fontSize=12;align=center;" parent="1" vertex="1">
          <mxGeometry x="495" y="50" width="100" height="290" as="geometry" />
        </mxCell>
        <mxCell id="pmrs1_szgmtALYekI0vW-40" value="SUCCESS" style="rounded=0;whiteSpace=wrap;html=1;" vertex="1" parent="7baba1c4bc27f4b0-3">
          <mxGeometry x="-25" y="110" width="95" height="40" as="geometry" />
        </mxCell>
        <mxCell id="7baba1c4bc27f4b0-4" value="car-service" style="shape=umlLifeline;perimeter=lifelinePerimeter;whiteSpace=wrap;html=1;container=1;collapsible=0;recursiveResize=0;outlineConnect=0;rounded=1;shadow=0;comic=0;labelBackgroundColor=none;strokeWidth=1;fontFamily=Verdana;fontSize=12;align=center;" parent="1" vertex="1">
          <mxGeometry x="635" y="50" width="100" height="290" as="geometry" />
        </mxCell>
        <mxCell id="7baba1c4bc27f4b0-5" value="carLocation-service" style="shape=umlLifeline;perimeter=lifelinePerimeter;whiteSpace=wrap;html=1;container=1;collapsible=0;recursiveResize=0;outlineConnect=0;rounded=1;shadow=0;comic=0;labelBackgroundColor=none;strokeWidth=1;fontFamily=Verdana;fontSize=12;align=center;" parent="1" vertex="1">
          <mxGeometry x="775" y="50" width="100" height="300" as="geometry" />
        </mxCell>
        <mxCell id="q3Zru9EEuTwCZ6XHMxM4-10" value="" style="endArrow=classic;html=1;rounded=0;dashed=1;exitX=1;exitY=0.25;exitDx=0;exitDy=0;" edge="1" parent="7baba1c4bc27f4b0-5" source="pmrs1_szgmtALYekI0vW-40">
          <mxGeometry width="50" height="50" relative="1" as="geometry">
            <mxPoint x="-205" y="120" as="sourcePoint" />
            <mxPoint x="49.5" y="119.99999999999989" as="targetPoint" />
          </mxGeometry>
        </mxCell>
        <mxCell id="q3Zru9EEuTwCZ6XHMxM4-11" value="RAC_USER_CREATED" style="edgeLabel;html=1;align=center;verticalAlign=middle;resizable=0;points=[];" vertex="1" connectable="0" parent="q3Zru9EEuTwCZ6XHMxM4-10">
          <mxGeometry x="-0.0351" relative="1" as="geometry">
            <mxPoint as="offset" />
          </mxGeometry>
        </mxCell>
        <mxCell id="7baba1c4bc27f4b0-6" value="search-service" style="shape=umlLifeline;perimeter=lifelinePerimeter;whiteSpace=wrap;html=1;container=1;collapsible=0;recursiveResize=0;outlineConnect=0;rounded=1;shadow=0;comic=0;labelBackgroundColor=none;strokeWidth=1;fontFamily=Verdana;fontSize=12;align=center;" parent="1" vertex="1">
          <mxGeometry x="915" y="50" width="100" height="300" as="geometry" />
        </mxCell>
        <mxCell id="7baba1c4bc27f4b0-8" value="Client" style="shape=umlLifeline;perimeter=lifelinePerimeter;whiteSpace=wrap;html=1;container=1;collapsible=0;recursiveResize=0;outlineConnect=0;rounded=1;shadow=0;comic=0;labelBackgroundColor=none;strokeWidth=1;fontFamily=Verdana;fontSize=12;align=center;" parent="1" vertex="1">
          <mxGeometry x="85" y="50" width="100" height="290" as="geometry" />
        </mxCell>
        <mxCell id="q3Zru9EEuTwCZ6XHMxM4-1" value="rac-api-gateway" style="shape=umlLifeline;perimeter=lifelinePerimeter;whiteSpace=wrap;html=1;container=1;collapsible=0;recursiveResize=0;outlineConnect=0;rounded=1;shadow=0;comic=0;labelBackgroundColor=none;strokeWidth=1;fontFamily=Verdana;fontSize=12;align=center;" vertex="1" parent="1">
          <mxGeometry x="215" y="50" width="100" height="290" as="geometry" />
        </mxCell>
        <mxCell id="q3Zru9EEuTwCZ6XHMxM4-4" value="" style="endArrow=classic;html=1;rounded=0;" edge="1" parent="q3Zru9EEuTwCZ6XHMxM4-1" source="7baba1c4bc27f4b0-8">
          <mxGeometry width="50" height="50" relative="1" as="geometry">
            <mxPoint y="120" as="sourcePoint" />
            <mxPoint x="50" y="70" as="targetPoint" />
          </mxGeometry>
        </mxCell>
        <mxCell id="q3Zru9EEuTwCZ6XHMxM4-5" value="ADD_USER" style="edgeLabel;html=1;align=center;verticalAlign=middle;resizable=0;points=[];" vertex="1" connectable="0" parent="q3Zru9EEuTwCZ6XHMxM4-4">
          <mxGeometry x="-0.0351" relative="1" as="geometry">
            <mxPoint as="offset" />
          </mxGeometry>
        </mxCell>
        <mxCell id="q3Zru9EEuTwCZ6XHMxM4-6" value="" style="endArrow=classic;html=1;rounded=0;" edge="1" parent="q3Zru9EEuTwCZ6XHMxM4-1">
          <mxGeometry width="50" height="50" relative="1" as="geometry">
            <mxPoint x="55" y="90" as="sourcePoint" />
            <mxPoint x="185" y="90" as="targetPoint" />
          </mxGeometry>
        </mxCell>
        <mxCell id="q3Zru9EEuTwCZ6XHMxM4-8" value="" style="endArrow=classic;html=1;rounded=0;" edge="1" parent="q3Zru9EEuTwCZ6XHMxM4-1" target="7baba1c4bc27f4b0-3">
          <mxGeometry width="50" height="50" relative="1" as="geometry">
            <mxPoint x="55" y="90" as="sourcePoint" />
            <mxPoint x="185" y="90" as="targetPoint" />
          </mxGeometry>
        </mxCell>
        <mxCell id="q3Zru9EEuTwCZ6XHMxM4-9" value="ADD_USER" style="edgeLabel;html=1;align=center;verticalAlign=middle;resizable=0;points=[];" vertex="1" connectable="0" parent="q3Zru9EEuTwCZ6XHMxM4-8">
          <mxGeometry x="-0.0351" relative="1" as="geometry">
            <mxPoint as="offset" />
          </mxGeometry>
        </mxCell>
        <mxCell id="q3Zru9EEuTwCZ6XHMxM4-13" value="&lt;font style=&quot;font-size: 20px;&quot;&gt;ADD USER SUCCESS&lt;/font&gt;" style="text;html=1;strokeColor=default;fillColor=none;align=center;verticalAlign=middle;whiteSpace=wrap;rounded=0;strokeWidth=3;" vertex="1" parent="1">
          <mxGeometry x="70" y="10" width="235" height="30" as="geometry" />
        </mxCell>
        <mxCell id="NTs0NXViBunp1Db6N-1h-1" value="" style="endArrow=classic;html=1;rounded=0;" edge="1" parent="1">
          <mxGeometry width="50" height="50" relative="1" as="geometry">
            <mxPoint x="545.13" y="220" as="sourcePoint" />
            <mxPoint x="264.88" y="220" as="targetPoint" />
          </mxGeometry>
        </mxCell>
        <mxCell id="NTs0NXViBunp1Db6N-1h-3" value="USER_ADDED" style="edgeLabel;html=1;align=center;verticalAlign=middle;resizable=0;points=[];" vertex="1" connectable="0" parent="NTs0NXViBunp1Db6N-1h-1">
          <mxGeometry x="0.1374" y="-1" relative="1" as="geometry">
            <mxPoint x="1" as="offset" />
          </mxGeometry>
        </mxCell>
        <mxCell id="NTs0NXViBunp1Db6N-1h-4" value="" style="endArrow=classic;html=1;rounded=0;" edge="1" parent="1">
          <mxGeometry width="50" height="50" relative="1" as="geometry">
            <mxPoint x="260" y="250" as="sourcePoint" />
            <mxPoint x="140" y="250" as="targetPoint" />
          </mxGeometry>
        </mxCell>
        <mxCell id="NTs0NXViBunp1Db6N-1h-5" value="USER_ADDED" style="edgeLabel;html=1;align=center;verticalAlign=middle;resizable=0;points=[];" vertex="1" connectable="0" parent="NTs0NXViBunp1Db6N-1h-4">
          <mxGeometry x="0.1374" y="-1" relative="1" as="geometry">
            <mxPoint x="1" as="offset" />
          </mxGeometry>
        </mxCell>
        <mxCell id="pmrs1_szgmtALYekI0vW-20" value="rent-service" style="shape=umlLifeline;perimeter=lifelinePerimeter;whiteSpace=wrap;html=1;container=1;collapsible=0;recursiveResize=0;outlineConnect=0;rounded=1;shadow=0;comic=0;labelBackgroundColor=none;strokeWidth=1;fontFamily=Verdana;fontSize=12;align=center;" vertex="1" parent="1">
          <mxGeometry x="355" y="420" width="100" height="290" as="geometry" />
        </mxCell>
        <mxCell id="pmrs1_szgmtALYekI0vW-21" value="user-service" style="shape=umlLifeline;perimeter=lifelinePerimeter;whiteSpace=wrap;html=1;container=1;collapsible=0;recursiveResize=0;outlineConnect=0;rounded=1;shadow=0;comic=0;labelBackgroundColor=none;strokeWidth=1;fontFamily=Verdana;fontSize=12;align=center;" vertex="1" parent="1">
          <mxGeometry x="495" y="420" width="135" height="290" as="geometry" />
        </mxCell>
        <mxCell id="pmrs1_szgmtALYekI0vW-47" value="SUCCESS" style="rounded=0;whiteSpace=wrap;html=1;" vertex="1" parent="pmrs1_szgmtALYekI0vW-21">
          <mxGeometry x="20" y="110" width="95" height="40" as="geometry" />
        </mxCell>
        <mxCell id="pmrs1_szgmtALYekI0vW-24" value="car-service" style="shape=umlLifeline;perimeter=lifelinePerimeter;whiteSpace=wrap;html=1;container=1;collapsible=0;recursiveResize=0;outlineConnect=0;rounded=1;shadow=0;comic=0;labelBackgroundColor=none;strokeWidth=1;fontFamily=Verdana;fontSize=12;align=center;" vertex="1" parent="1">
          <mxGeometry x="635" y="420" width="100" height="290" as="geometry" />
        </mxCell>
        <mxCell id="pmrs1_szgmtALYekI0vW-25" value="carLocation-service" style="shape=umlLifeline;perimeter=lifelinePerimeter;whiteSpace=wrap;html=1;container=1;collapsible=0;recursiveResize=0;outlineConnect=0;rounded=1;shadow=0;comic=0;labelBackgroundColor=none;strokeWidth=1;fontFamily=Verdana;fontSize=12;align=center;" vertex="1" parent="1">
          <mxGeometry x="775" y="420" width="100" height="300" as="geometry" />
        </mxCell>
        <mxCell id="pmrs1_szgmtALYekI0vW-26" value="search-service" style="shape=umlLifeline;perimeter=lifelinePerimeter;whiteSpace=wrap;html=1;container=1;collapsible=0;recursiveResize=0;outlineConnect=0;rounded=1;shadow=0;comic=0;labelBackgroundColor=none;strokeWidth=1;fontFamily=Verdana;fontSize=12;align=center;" vertex="1" parent="1">
          <mxGeometry x="915" y="420" width="100" height="300" as="geometry" />
        </mxCell>
        <mxCell id="pmrs1_szgmtALYekI0vW-27" value="Client" style="shape=umlLifeline;perimeter=lifelinePerimeter;whiteSpace=wrap;html=1;container=1;collapsible=0;recursiveResize=0;outlineConnect=0;rounded=1;shadow=0;comic=0;labelBackgroundColor=none;strokeWidth=1;fontFamily=Verdana;fontSize=12;align=center;" vertex="1" parent="1">
          <mxGeometry x="85" y="420" width="100" height="290" as="geometry" />
        </mxCell>
        <mxCell id="pmrs1_szgmtALYekI0vW-28" value="rac-api-gateway" style="shape=umlLifeline;perimeter=lifelinePerimeter;whiteSpace=wrap;html=1;container=1;collapsible=0;recursiveResize=0;outlineConnect=0;rounded=1;shadow=0;comic=0;labelBackgroundColor=none;strokeWidth=1;fontFamily=Verdana;fontSize=12;align=center;" vertex="1" parent="1">
          <mxGeometry x="215" y="420" width="100" height="290" as="geometry" />
        </mxCell>
        <mxCell id="pmrs1_szgmtALYekI0vW-29" value="" style="endArrow=classic;html=1;rounded=0;" edge="1" parent="pmrs1_szgmtALYekI0vW-28" source="pmrs1_szgmtALYekI0vW-27">
          <mxGeometry width="50" height="50" relative="1" as="geometry">
            <mxPoint y="120" as="sourcePoint" />
            <mxPoint x="50" y="70" as="targetPoint" />
          </mxGeometry>
        </mxCell>
        <mxCell id="pmrs1_szgmtALYekI0vW-30" value="DELETE_USER" style="edgeLabel;html=1;align=center;verticalAlign=middle;resizable=0;points=[];" vertex="1" connectable="0" parent="pmrs1_szgmtALYekI0vW-29">
          <mxGeometry x="-0.0351" relative="1" as="geometry">
            <mxPoint as="offset" />
          </mxGeometry>
        </mxCell>
        <mxCell id="pmrs1_szgmtALYekI0vW-31" value="" style="endArrow=classic;html=1;rounded=0;" edge="1" parent="pmrs1_szgmtALYekI0vW-28">
          <mxGeometry width="50" height="50" relative="1" as="geometry">
            <mxPoint x="55" y="90" as="sourcePoint" />
            <mxPoint x="185" y="90" as="targetPoint" />
          </mxGeometry>
        </mxCell>
        <mxCell id="pmrs1_szgmtALYekI0vW-32" value="" style="endArrow=classic;html=1;rounded=0;" edge="1" parent="pmrs1_szgmtALYekI0vW-28" target="pmrs1_szgmtALYekI0vW-21">
          <mxGeometry width="50" height="50" relative="1" as="geometry">
            <mxPoint x="55" y="90" as="sourcePoint" />
            <mxPoint x="185" y="90" as="targetPoint" />
          </mxGeometry>
        </mxCell>
        <mxCell id="pmrs1_szgmtALYekI0vW-33" value="DELETE_USER" style="edgeLabel;html=1;align=center;verticalAlign=middle;resizable=0;points=[];" vertex="1" connectable="0" parent="pmrs1_szgmtALYekI0vW-32">
          <mxGeometry x="-0.0351" relative="1" as="geometry">
            <mxPoint as="offset" />
          </mxGeometry>
        </mxCell>
        <mxCell id="pmrs1_szgmtALYekI0vW-34" value="&lt;font style=&quot;font-size: 20px;&quot;&gt;DELETE USER SUCCESS&lt;/font&gt;" style="text;html=1;strokeColor=default;fillColor=none;align=center;verticalAlign=middle;whiteSpace=wrap;rounded=0;strokeWidth=3;" vertex="1" parent="1">
          <mxGeometry x="70" y="380" width="420" height="30" as="geometry" />
        </mxCell>
        <mxCell id="pmrs1_szgmtALYekI0vW-35" value="" style="endArrow=classic;html=1;rounded=0;" edge="1" parent="1" source="pmrs1_szgmtALYekI0vW-21">
          <mxGeometry width="50" height="50" relative="1" as="geometry">
            <mxPoint x="545.13" y="590" as="sourcePoint" />
            <mxPoint x="264.88" y="590" as="targetPoint" />
          </mxGeometry>
        </mxCell>
        <mxCell id="pmrs1_szgmtALYekI0vW-36" value="USER_DELETED" style="edgeLabel;html=1;align=center;verticalAlign=middle;resizable=0;points=[];" vertex="1" connectable="0" parent="pmrs1_szgmtALYekI0vW-35">
          <mxGeometry x="0.1374" y="-1" relative="1" as="geometry">
            <mxPoint x="1" as="offset" />
          </mxGeometry>
        </mxCell>
        <mxCell id="pmrs1_szgmtALYekI0vW-37" value="" style="endArrow=classic;html=1;rounded=0;" edge="1" parent="1">
          <mxGeometry width="50" height="50" relative="1" as="geometry">
            <mxPoint x="260" y="620" as="sourcePoint" />
            <mxPoint x="140" y="620" as="targetPoint" />
          </mxGeometry>
        </mxCell>
        <mxCell id="pmrs1_szgmtALYekI0vW-38" value="USER_DELETED" style="edgeLabel;html=1;align=center;verticalAlign=middle;resizable=0;points=[];" vertex="1" connectable="0" parent="pmrs1_szgmtALYekI0vW-37">
          <mxGeometry x="0.1374" y="-1" relative="1" as="geometry">
            <mxPoint x="18" as="offset" />
          </mxGeometry>
        </mxCell>
        <mxCell id="pmrs1_szgmtALYekI0vW-45" value="" style="endArrow=classic;html=1;rounded=0;dashed=1;exitX=1;exitY=0.75;exitDx=0;exitDy=0;" edge="1" parent="1" source="pmrs1_szgmtALYekI0vW-40" target="7baba1c4bc27f4b0-6">
          <mxGeometry width="50" height="50" relative="1" as="geometry">
            <mxPoint x="575" y="180" as="sourcePoint" />
            <mxPoint x="834.5" y="179.9999999999999" as="targetPoint" />
          </mxGeometry>
        </mxCell>
        <mxCell id="pmrs1_szgmtALYekI0vW-46" value="RAC_USER_CREATED" style="edgeLabel;html=1;align=center;verticalAlign=middle;resizable=0;points=[];" vertex="1" connectable="0" parent="pmrs1_szgmtALYekI0vW-45">
          <mxGeometry x="-0.0351" relative="1" as="geometry">
            <mxPoint as="offset" />
          </mxGeometry>
        </mxCell>
        <mxCell id="pmrs1_szgmtALYekI0vW-48" value="" style="endArrow=classic;html=1;rounded=0;dashed=1;exitX=1;exitY=0.25;exitDx=0;exitDy=0;" edge="1" parent="1" source="pmrs1_szgmtALYekI0vW-47" target="pmrs1_szgmtALYekI0vW-26">
          <mxGeometry width="50" height="50" relative="1" as="geometry">
            <mxPoint x="575" y="180" as="sourcePoint" />
            <mxPoint x="834.5" y="179.9999999999999" as="targetPoint" />
          </mxGeometry>
        </mxCell>
        <mxCell id="pmrs1_szgmtALYekI0vW-49" value="RAC_USER_DELETED" style="edgeLabel;html=1;align=center;verticalAlign=middle;resizable=0;points=[];" vertex="1" connectable="0" parent="pmrs1_szgmtALYekI0vW-48">
          <mxGeometry x="-0.0351" relative="1" as="geometry">
            <mxPoint as="offset" />
          </mxGeometry>
        </mxCell>
      </root>
    </mxGraphModel>
  </diagram>
  <diagram id="8Ph5AQASoMjnPTyVLKJF" name="Car">
    <mxGraphModel dx="1147" dy="669" grid="1" gridSize="10" guides="1" tooltips="1" connect="1" arrows="1" fold="1" page="1" pageScale="1" pageWidth="827" pageHeight="1169" math="0" shadow="0">
      <root>
        <mxCell id="0" />
        <mxCell id="1" parent="0" />
        <mxCell id="UzS8B0ZTlOfebDEBukLw-43" value="rent-service" style="shape=umlLifeline;perimeter=lifelinePerimeter;whiteSpace=wrap;html=1;container=1;collapsible=0;recursiveResize=0;outlineConnect=0;rounded=1;shadow=0;comic=0;labelBackgroundColor=none;strokeWidth=1;fontFamily=Verdana;fontSize=12;align=center;" vertex="1" parent="1">
          <mxGeometry x="365" y="60" width="100" height="290" as="geometry" />
        </mxCell>
        <mxCell id="UzS8B0ZTlOfebDEBukLw-44" value="user-service" style="shape=umlLifeline;perimeter=lifelinePerimeter;whiteSpace=wrap;html=1;container=1;collapsible=0;recursiveResize=0;outlineConnect=0;rounded=1;shadow=0;comic=0;labelBackgroundColor=none;strokeWidth=1;fontFamily=Verdana;fontSize=12;align=center;" vertex="1" parent="1">
          <mxGeometry x="505" y="60" width="100" height="290" as="geometry" />
        </mxCell>
        <mxCell id="UzS8B0ZTlOfebDEBukLw-56" value="" style="endArrow=classic;html=1;rounded=0;" edge="1" parent="UzS8B0ZTlOfebDEBukLw-44">
          <mxGeometry width="50" height="50" relative="1" as="geometry">
            <mxPoint x="-225" y="90" as="sourcePoint" />
            <mxPoint x="189.5" y="90" as="targetPoint" />
          </mxGeometry>
        </mxCell>
        <mxCell id="UzS8B0ZTlOfebDEBukLw-57" value="ADD_CAR" style="edgeLabel;html=1;align=center;verticalAlign=middle;resizable=0;points=[];" vertex="1" connectable="0" parent="UzS8B0ZTlOfebDEBukLw-56">
          <mxGeometry x="-0.0351" relative="1" as="geometry">
            <mxPoint as="offset" />
          </mxGeometry>
        </mxCell>
        <mxCell id="UzS8B0ZTlOfebDEBukLw-46" value="car-service" style="shape=umlLifeline;perimeter=lifelinePerimeter;whiteSpace=wrap;html=1;container=1;collapsible=0;recursiveResize=0;outlineConnect=0;rounded=1;shadow=0;comic=0;labelBackgroundColor=none;strokeWidth=1;fontFamily=Verdana;fontSize=12;align=center;" vertex="1" parent="1">
          <mxGeometry x="645" y="60" width="100" height="290" as="geometry" />
        </mxCell>
        <mxCell id="UzS8B0ZTlOfebDEBukLw-45" value="SUCCESS" style="rounded=0;whiteSpace=wrap;html=1;" vertex="1" parent="UzS8B0ZTlOfebDEBukLw-46">
          <mxGeometry y="110" width="95" height="40" as="geometry" />
        </mxCell>
        <mxCell id="UzS8B0ZTlOfebDEBukLw-47" value="carLocation-service" style="shape=umlLifeline;perimeter=lifelinePerimeter;whiteSpace=wrap;html=1;container=1;collapsible=0;recursiveResize=0;outlineConnect=0;rounded=1;shadow=0;comic=0;labelBackgroundColor=none;strokeWidth=1;fontFamily=Verdana;fontSize=12;align=center;" vertex="1" parent="1">
          <mxGeometry x="785" y="60" width="100" height="300" as="geometry" />
        </mxCell>
        <mxCell id="UzS8B0ZTlOfebDEBukLw-48" value="" style="endArrow=classic;html=1;rounded=0;dashed=1;exitX=1;exitY=0.25;exitDx=0;exitDy=0;" edge="1" parent="UzS8B0ZTlOfebDEBukLw-47" source="UzS8B0ZTlOfebDEBukLw-45">
          <mxGeometry width="50" height="50" relative="1" as="geometry">
            <mxPoint x="-205" y="120" as="sourcePoint" />
            <mxPoint x="49.5" y="119.99999999999989" as="targetPoint" />
          </mxGeometry>
        </mxCell>
        <mxCell id="UzS8B0ZTlOfebDEBukLw-49" value="RAC_CAR_CREATED" style="edgeLabel;html=1;align=center;verticalAlign=middle;resizable=0;points=[];" vertex="1" connectable="0" parent="UzS8B0ZTlOfebDEBukLw-48">
          <mxGeometry x="-0.0351" relative="1" as="geometry">
            <mxPoint as="offset" />
          </mxGeometry>
        </mxCell>
        <mxCell id="UzS8B0ZTlOfebDEBukLw-50" value="search-service" style="shape=umlLifeline;perimeter=lifelinePerimeter;whiteSpace=wrap;html=1;container=1;collapsible=0;recursiveResize=0;outlineConnect=0;rounded=1;shadow=0;comic=0;labelBackgroundColor=none;strokeWidth=1;fontFamily=Verdana;fontSize=12;align=center;" vertex="1" parent="1">
          <mxGeometry x="925" y="60" width="100" height="300" as="geometry" />
        </mxCell>
        <mxCell id="UzS8B0ZTlOfebDEBukLw-51" value="Client" style="shape=umlLifeline;perimeter=lifelinePerimeter;whiteSpace=wrap;html=1;container=1;collapsible=0;recursiveResize=0;outlineConnect=0;rounded=1;shadow=0;comic=0;labelBackgroundColor=none;strokeWidth=1;fontFamily=Verdana;fontSize=12;align=center;" vertex="1" parent="1">
          <mxGeometry x="95" y="60" width="100" height="290" as="geometry" />
        </mxCell>
        <mxCell id="UzS8B0ZTlOfebDEBukLw-52" value="rac-api-gateway" style="shape=umlLifeline;perimeter=lifelinePerimeter;whiteSpace=wrap;html=1;container=1;collapsible=0;recursiveResize=0;outlineConnect=0;rounded=1;shadow=0;comic=0;labelBackgroundColor=none;strokeWidth=1;fontFamily=Verdana;fontSize=12;align=center;" vertex="1" parent="1">
          <mxGeometry x="225" y="60" width="100" height="290" as="geometry" />
        </mxCell>
        <mxCell id="UzS8B0ZTlOfebDEBukLw-53" value="" style="endArrow=classic;html=1;rounded=0;" edge="1" parent="UzS8B0ZTlOfebDEBukLw-52" source="UzS8B0ZTlOfebDEBukLw-51">
          <mxGeometry width="50" height="50" relative="1" as="geometry">
            <mxPoint y="120" as="sourcePoint" />
            <mxPoint x="50" y="70" as="targetPoint" />
          </mxGeometry>
        </mxCell>
        <mxCell id="UzS8B0ZTlOfebDEBukLw-54" value="ADD_CAR" style="edgeLabel;html=1;align=center;verticalAlign=middle;resizable=0;points=[];" vertex="1" connectable="0" parent="UzS8B0ZTlOfebDEBukLw-53">
          <mxGeometry x="-0.0351" relative="1" as="geometry">
            <mxPoint as="offset" />
          </mxGeometry>
        </mxCell>
        <mxCell id="UzS8B0ZTlOfebDEBukLw-58" value="&lt;font style=&quot;font-size: 20px;&quot;&gt;ADD CAR SUCCESS&lt;/font&gt;" style="text;html=1;strokeColor=default;fillColor=none;align=center;verticalAlign=middle;whiteSpace=wrap;rounded=0;strokeWidth=3;" vertex="1" parent="1">
          <mxGeometry x="80" y="20" width="235" height="30" as="geometry" />
        </mxCell>
        <mxCell id="UzS8B0ZTlOfebDEBukLw-59" value="" style="endArrow=classic;html=1;rounded=0;" edge="1" parent="1" source="UzS8B0ZTlOfebDEBukLw-46">
          <mxGeometry width="50" height="50" relative="1" as="geometry">
            <mxPoint x="555.13" y="230" as="sourcePoint" />
            <mxPoint x="274.88" y="230" as="targetPoint" />
          </mxGeometry>
        </mxCell>
        <mxCell id="UzS8B0ZTlOfebDEBukLw-60" value="CAR_ADDED" style="edgeLabel;html=1;align=center;verticalAlign=middle;resizable=0;points=[];" vertex="1" connectable="0" parent="UzS8B0ZTlOfebDEBukLw-59">
          <mxGeometry x="0.1374" y="-1" relative="1" as="geometry">
            <mxPoint x="1" as="offset" />
          </mxGeometry>
        </mxCell>
        <mxCell id="UzS8B0ZTlOfebDEBukLw-61" value="" style="endArrow=classic;html=1;rounded=0;" edge="1" parent="1">
          <mxGeometry width="50" height="50" relative="1" as="geometry">
            <mxPoint x="270" y="260" as="sourcePoint" />
            <mxPoint x="150" y="260" as="targetPoint" />
          </mxGeometry>
        </mxCell>
        <mxCell id="UzS8B0ZTlOfebDEBukLw-62" value="CAR_ADDED" style="edgeLabel;html=1;align=center;verticalAlign=middle;resizable=0;points=[];" vertex="1" connectable="0" parent="UzS8B0ZTlOfebDEBukLw-61">
          <mxGeometry x="0.1374" y="-1" relative="1" as="geometry">
            <mxPoint x="1" as="offset" />
          </mxGeometry>
        </mxCell>
        <mxCell id="UzS8B0ZTlOfebDEBukLw-63" value="rent-service" style="shape=umlLifeline;perimeter=lifelinePerimeter;whiteSpace=wrap;html=1;container=1;collapsible=0;recursiveResize=0;outlineConnect=0;rounded=1;shadow=0;comic=0;labelBackgroundColor=none;strokeWidth=1;fontFamily=Verdana;fontSize=12;align=center;" vertex="1" parent="1">
          <mxGeometry x="365" y="430" width="100" height="290" as="geometry" />
        </mxCell>
        <mxCell id="UzS8B0ZTlOfebDEBukLw-64" value="user-service" style="shape=umlLifeline;perimeter=lifelinePerimeter;whiteSpace=wrap;html=1;container=1;collapsible=0;recursiveResize=0;outlineConnect=0;rounded=1;shadow=0;comic=0;labelBackgroundColor=none;strokeWidth=1;fontFamily=Verdana;fontSize=12;align=center;" vertex="1" parent="1">
          <mxGeometry x="505" y="430" width="135" height="290" as="geometry" />
        </mxCell>
        <mxCell id="UzS8B0ZTlOfebDEBukLw-66" value="car-service" style="shape=umlLifeline;perimeter=lifelinePerimeter;whiteSpace=wrap;html=1;container=1;collapsible=0;recursiveResize=0;outlineConnect=0;rounded=1;shadow=0;comic=0;labelBackgroundColor=none;strokeWidth=1;fontFamily=Verdana;fontSize=12;align=center;" vertex="1" parent="1">
          <mxGeometry x="645" y="430" width="100" height="290" as="geometry" />
        </mxCell>
        <mxCell id="UzS8B0ZTlOfebDEBukLw-65" value="SUCCESS" style="rounded=0;whiteSpace=wrap;html=1;" vertex="1" parent="UzS8B0ZTlOfebDEBukLw-66">
          <mxGeometry x="-15" y="110" width="95" height="40" as="geometry" />
        </mxCell>
        <mxCell id="UzS8B0ZTlOfebDEBukLw-67" value="carLocation-service" style="shape=umlLifeline;perimeter=lifelinePerimeter;whiteSpace=wrap;html=1;container=1;collapsible=0;recursiveResize=0;outlineConnect=0;rounded=1;shadow=0;comic=0;labelBackgroundColor=none;strokeWidth=1;fontFamily=Verdana;fontSize=12;align=center;" vertex="1" parent="1">
          <mxGeometry x="785" y="430" width="100" height="300" as="geometry" />
        </mxCell>
        <mxCell id="UzS8B0ZTlOfebDEBukLw-68" value="search-service" style="shape=umlLifeline;perimeter=lifelinePerimeter;whiteSpace=wrap;html=1;container=1;collapsible=0;recursiveResize=0;outlineConnect=0;rounded=1;shadow=0;comic=0;labelBackgroundColor=none;strokeWidth=1;fontFamily=Verdana;fontSize=12;align=center;" vertex="1" parent="1">
          <mxGeometry x="925" y="430" width="100" height="300" as="geometry" />
        </mxCell>
        <mxCell id="UzS8B0ZTlOfebDEBukLw-69" value="Client" style="shape=umlLifeline;perimeter=lifelinePerimeter;whiteSpace=wrap;html=1;container=1;collapsible=0;recursiveResize=0;outlineConnect=0;rounded=1;shadow=0;comic=0;labelBackgroundColor=none;strokeWidth=1;fontFamily=Verdana;fontSize=12;align=center;" vertex="1" parent="1">
          <mxGeometry x="95" y="430" width="100" height="290" as="geometry" />
        </mxCell>
        <mxCell id="UzS8B0ZTlOfebDEBukLw-70" value="rac-api-gateway" style="shape=umlLifeline;perimeter=lifelinePerimeter;whiteSpace=wrap;html=1;container=1;collapsible=0;recursiveResize=0;outlineConnect=0;rounded=1;shadow=0;comic=0;labelBackgroundColor=none;strokeWidth=1;fontFamily=Verdana;fontSize=12;align=center;" vertex="1" parent="1">
          <mxGeometry x="225" y="430" width="100" height="290" as="geometry" />
        </mxCell>
        <mxCell id="UzS8B0ZTlOfebDEBukLw-71" value="" style="endArrow=classic;html=1;rounded=0;" edge="1" parent="UzS8B0ZTlOfebDEBukLw-70" source="UzS8B0ZTlOfebDEBukLw-69">
          <mxGeometry width="50" height="50" relative="1" as="geometry">
            <mxPoint y="120" as="sourcePoint" />
            <mxPoint x="50" y="70" as="targetPoint" />
          </mxGeometry>
        </mxCell>
        <mxCell id="UzS8B0ZTlOfebDEBukLw-72" value="DELETE_CAR" style="edgeLabel;html=1;align=center;verticalAlign=middle;resizable=0;points=[];" vertex="1" connectable="0" parent="UzS8B0ZTlOfebDEBukLw-71">
          <mxGeometry x="-0.0351" relative="1" as="geometry">
            <mxPoint as="offset" />
          </mxGeometry>
        </mxCell>
        <mxCell id="UzS8B0ZTlOfebDEBukLw-74" value="" style="endArrow=classic;html=1;rounded=0;" edge="1" parent="UzS8B0ZTlOfebDEBukLw-70" target="UzS8B0ZTlOfebDEBukLw-66">
          <mxGeometry width="50" height="50" relative="1" as="geometry">
            <mxPoint x="55" y="90" as="sourcePoint" />
            <mxPoint x="185" y="90" as="targetPoint" />
            <Array as="points">
              <mxPoint x="295" y="90" />
            </Array>
          </mxGeometry>
        </mxCell>
        <mxCell id="UzS8B0ZTlOfebDEBukLw-75" value="DELETE_CAR" style="edgeLabel;html=1;align=center;verticalAlign=middle;resizable=0;points=[];" vertex="1" connectable="0" parent="UzS8B0ZTlOfebDEBukLw-74">
          <mxGeometry x="-0.0351" relative="1" as="geometry">
            <mxPoint as="offset" />
          </mxGeometry>
        </mxCell>
        <mxCell id="UzS8B0ZTlOfebDEBukLw-76" value="&lt;font style=&quot;font-size: 20px;&quot;&gt;DELETE CAR SUCCESS&lt;/font&gt;" style="text;html=1;strokeColor=default;fillColor=none;align=center;verticalAlign=middle;whiteSpace=wrap;rounded=0;strokeWidth=3;" vertex="1" parent="1">
          <mxGeometry x="80" y="390" width="420" height="30" as="geometry" />
        </mxCell>
        <mxCell id="UzS8B0ZTlOfebDEBukLw-77" value="" style="endArrow=classic;html=1;rounded=0;" edge="1" parent="1" source="UzS8B0ZTlOfebDEBukLw-66">
          <mxGeometry width="50" height="50" relative="1" as="geometry">
            <mxPoint x="555.13" y="600" as="sourcePoint" />
            <mxPoint x="274.88" y="600" as="targetPoint" />
          </mxGeometry>
        </mxCell>
        <mxCell id="UzS8B0ZTlOfebDEBukLw-78" value="CAR_DELETED" style="edgeLabel;html=1;align=center;verticalAlign=middle;resizable=0;points=[];" vertex="1" connectable="0" parent="UzS8B0ZTlOfebDEBukLw-77">
          <mxGeometry x="0.1374" y="-1" relative="1" as="geometry">
            <mxPoint x="1" as="offset" />
          </mxGeometry>
        </mxCell>
        <mxCell id="UzS8B0ZTlOfebDEBukLw-79" value="" style="endArrow=classic;html=1;rounded=0;" edge="1" parent="1">
          <mxGeometry width="50" height="50" relative="1" as="geometry">
            <mxPoint x="270" y="630" as="sourcePoint" />
            <mxPoint x="150" y="630" as="targetPoint" />
          </mxGeometry>
        </mxCell>
        <mxCell id="UzS8B0ZTlOfebDEBukLw-80" value="CAR_DELETED" style="edgeLabel;html=1;align=center;verticalAlign=middle;resizable=0;points=[];" vertex="1" connectable="0" parent="UzS8B0ZTlOfebDEBukLw-79">
          <mxGeometry x="0.1374" y="-1" relative="1" as="geometry">
            <mxPoint x="18" as="offset" />
          </mxGeometry>
        </mxCell>
        <mxCell id="UzS8B0ZTlOfebDEBukLw-81" value="" style="endArrow=classic;html=1;rounded=0;dashed=1;exitX=1;exitY=0.75;exitDx=0;exitDy=0;" edge="1" parent="1" source="UzS8B0ZTlOfebDEBukLw-45" target="UzS8B0ZTlOfebDEBukLw-50">
          <mxGeometry width="50" height="50" relative="1" as="geometry">
            <mxPoint x="585" y="190" as="sourcePoint" />
            <mxPoint x="844.5" y="189.9999999999999" as="targetPoint" />
          </mxGeometry>
        </mxCell>
        <mxCell id="UzS8B0ZTlOfebDEBukLw-82" value="RAC_CAR_CREATED" style="edgeLabel;html=1;align=center;verticalAlign=middle;resizable=0;points=[];" vertex="1" connectable="0" parent="UzS8B0ZTlOfebDEBukLw-81">
          <mxGeometry x="-0.0351" relative="1" as="geometry">
            <mxPoint as="offset" />
          </mxGeometry>
        </mxCell>
        <mxCell id="UzS8B0ZTlOfebDEBukLw-83" value="" style="endArrow=classic;html=1;rounded=0;dashed=1;exitX=1;exitY=0.25;exitDx=0;exitDy=0;" edge="1" parent="1" source="UzS8B0ZTlOfebDEBukLw-65" target="UzS8B0ZTlOfebDEBukLw-68">
          <mxGeometry width="50" height="50" relative="1" as="geometry">
            <mxPoint x="585" y="190" as="sourcePoint" />
            <mxPoint x="844.5" y="189.9999999999999" as="targetPoint" />
          </mxGeometry>
        </mxCell>
        <mxCell id="UzS8B0ZTlOfebDEBukLw-84" value="RAC_CAR_DELETED" style="edgeLabel;html=1;align=center;verticalAlign=middle;resizable=0;points=[];" vertex="1" connectable="0" parent="UzS8B0ZTlOfebDEBukLw-83">
          <mxGeometry x="-0.0351" relative="1" as="geometry">
            <mxPoint as="offset" />
          </mxGeometry>
        </mxCell>
      </root>
    </mxGraphModel>
  </diagram>
  <diagram id="CEvERsbfRfYUIIcLdijA" name="Rent">
    <mxGraphModel dx="1434" dy="836" grid="1" gridSize="10" guides="1" tooltips="1" connect="1" arrows="1" fold="1" page="1" pageScale="1" pageWidth="827" pageHeight="1169" math="0" shadow="0">
      <root>
        <mxCell id="0" />
        <mxCell id="1" parent="0" />
        <mxCell id="bbrAlsQB3KGbsBwekGWN-1" value="rent-service" style="shape=umlLifeline;perimeter=lifelinePerimeter;whiteSpace=wrap;html=1;container=1;collapsible=0;recursiveResize=0;outlineConnect=0;rounded=1;shadow=0;comic=0;labelBackgroundColor=none;strokeWidth=1;fontFamily=Verdana;fontSize=12;align=center;" vertex="1" parent="1">
          <mxGeometry x="305" y="50" width="100" height="440" as="geometry" />
        </mxCell>
        <mxCell id="bbrAlsQB3KGbsBwekGWN-15" value="" style="endArrow=classic;html=1;rounded=0;" edge="1" parent="bbrAlsQB3KGbsBwekGWN-1">
          <mxGeometry width="50" height="50" relative="1" as="geometry">
            <mxPoint x="49.5" y="370" as="sourcePoint" />
            <mxPoint x="-90.12" y="370" as="targetPoint" />
          </mxGeometry>
        </mxCell>
        <mxCell id="bbrAlsQB3KGbsBwekGWN-16" value="CAR_DELETED" style="edgeLabel;html=1;align=center;verticalAlign=middle;resizable=0;points=[];" vertex="1" connectable="0" parent="bbrAlsQB3KGbsBwekGWN-15">
          <mxGeometry x="0.1374" y="-1" relative="1" as="geometry">
            <mxPoint x="1" as="offset" />
          </mxGeometry>
        </mxCell>
        <mxCell id="X_DDhdHNDz55oe680tEE-1" value="" style="endArrow=classic;html=1;rounded=0;" edge="1" parent="bbrAlsQB3KGbsBwekGWN-1" target="bbrAlsQB3KGbsBwekGWN-2">
          <mxGeometry width="50" height="50" relative="1" as="geometry">
            <mxPoint x="55" y="100" as="sourcePoint" />
            <mxPoint x="185" y="100" as="targetPoint" />
          </mxGeometry>
        </mxCell>
        <mxCell id="X_DDhdHNDz55oe680tEE-2" value="VALIDATE_USER_DETAILS" style="edgeLabel;html=1;align=center;verticalAlign=middle;resizable=0;points=[];" vertex="1" connectable="0" parent="X_DDhdHNDz55oe680tEE-1">
          <mxGeometry x="-0.0351" relative="1" as="geometry">
            <mxPoint as="offset" />
          </mxGeometry>
        </mxCell>
        <mxCell id="bbrAlsQB3KGbsBwekGWN-2" value="user-service" style="shape=umlLifeline;perimeter=lifelinePerimeter;whiteSpace=wrap;html=1;container=1;collapsible=0;recursiveResize=0;outlineConnect=0;rounded=1;shadow=0;comic=0;labelBackgroundColor=none;strokeWidth=1;fontFamily=Verdana;fontSize=12;align=center;" vertex="1" parent="1">
          <mxGeometry x="445" y="50" width="105" height="440" as="geometry" />
        </mxCell>
        <mxCell id="bbrAlsQB3KGbsBwekGWN-12" value="" style="endArrow=classic;html=1;rounded=0;" edge="1" parent="bbrAlsQB3KGbsBwekGWN-2">
          <mxGeometry width="50" height="50" relative="1" as="geometry">
            <mxPoint x="-225" y="80" as="sourcePoint" />
            <mxPoint x="-95" y="80" as="targetPoint" />
          </mxGeometry>
        </mxCell>
        <mxCell id="bbrAlsQB3KGbsBwekGWN-13" value="RENT_CAR" style="edgeLabel;html=1;align=center;verticalAlign=middle;resizable=0;points=[];" vertex="1" connectable="0" parent="bbrAlsQB3KGbsBwekGWN-12">
          <mxGeometry x="-0.0351" relative="1" as="geometry">
            <mxPoint as="offset" />
          </mxGeometry>
        </mxCell>
        <mxCell id="X_DDhdHNDz55oe680tEE-3" value="" style="endArrow=classic;html=1;rounded=0;" edge="1" parent="bbrAlsQB3KGbsBwekGWN-2">
          <mxGeometry width="50" height="50" relative="1" as="geometry">
            <mxPoint x="52" y="180" as="sourcePoint" />
            <mxPoint x="189.5" y="180" as="targetPoint" />
          </mxGeometry>
        </mxCell>
        <mxCell id="X_DDhdHNDz55oe680tEE-4" value="RENT_CAR" style="edgeLabel;html=1;align=center;verticalAlign=middle;resizable=0;points=[];" vertex="1" connectable="0" parent="X_DDhdHNDz55oe680tEE-3">
          <mxGeometry x="-0.0351" relative="1" as="geometry">
            <mxPoint as="offset" />
          </mxGeometry>
        </mxCell>
        <mxCell id="X_DDhdHNDz55oe680tEE-5" value="" style="endArrow=classic;html=1;rounded=0;" edge="1" parent="bbrAlsQB3KGbsBwekGWN-2">
          <mxGeometry width="50" height="50" relative="1" as="geometry">
            <mxPoint x="54.620000000000005" y="140" as="sourcePoint" />
            <mxPoint x="-85" y="140" as="targetPoint" />
          </mxGeometry>
        </mxCell>
        <mxCell id="X_DDhdHNDz55oe680tEE-6" value="&lt;b&gt;&lt;i&gt;REJECT_RENT_USER&lt;/i&gt;&lt;/b&gt;" style="edgeLabel;html=1;align=center;verticalAlign=middle;resizable=0;points=[];" vertex="1" connectable="0" parent="X_DDhdHNDz55oe680tEE-5">
          <mxGeometry x="0.1374" y="-1" relative="1" as="geometry">
            <mxPoint x="9" as="offset" />
          </mxGeometry>
        </mxCell>
        <mxCell id="bbrAlsQB3KGbsBwekGWN-3" value="car-service" style="shape=umlLifeline;perimeter=lifelinePerimeter;whiteSpace=wrap;html=1;container=1;collapsible=0;recursiveResize=0;outlineConnect=0;rounded=1;shadow=0;comic=0;labelBackgroundColor=none;strokeWidth=1;fontFamily=Verdana;fontSize=12;align=center;" vertex="1" parent="1">
          <mxGeometry x="585" y="50" width="100" height="440" as="geometry" />
        </mxCell>
        <mxCell id="bbrAlsQB3KGbsBwekGWN-5" value="carLocation-service" style="shape=umlLifeline;perimeter=lifelinePerimeter;whiteSpace=wrap;html=1;container=1;collapsible=0;recursiveResize=0;outlineConnect=0;rounded=1;shadow=0;comic=0;labelBackgroundColor=none;strokeWidth=1;fontFamily=Verdana;fontSize=12;align=center;" vertex="1" parent="1">
          <mxGeometry x="725" y="50" width="100" height="440" as="geometry" />
        </mxCell>
        <mxCell id="bbrAlsQB3KGbsBwekGWN-6" value="search-service" style="shape=umlLifeline;perimeter=lifelinePerimeter;whiteSpace=wrap;html=1;container=1;collapsible=0;recursiveResize=0;outlineConnect=0;rounded=1;shadow=0;comic=0;labelBackgroundColor=none;strokeWidth=1;fontFamily=Verdana;fontSize=12;align=center;" vertex="1" parent="1">
          <mxGeometry x="865" y="50" width="100" height="440" as="geometry" />
        </mxCell>
        <mxCell id="bbrAlsQB3KGbsBwekGWN-7" value="Client" style="shape=umlLifeline;perimeter=lifelinePerimeter;whiteSpace=wrap;html=1;container=1;collapsible=0;recursiveResize=0;outlineConnect=0;rounded=1;shadow=0;comic=0;labelBackgroundColor=none;strokeWidth=1;fontFamily=Verdana;fontSize=12;align=center;" vertex="1" parent="1">
          <mxGeometry x="35" y="50" width="100" height="440" as="geometry" />
        </mxCell>
        <mxCell id="bbrAlsQB3KGbsBwekGWN-17" value="" style="endArrow=classic;html=1;rounded=0;" edge="1" parent="bbrAlsQB3KGbsBwekGWN-7">
          <mxGeometry width="50" height="50" relative="1" as="geometry">
            <mxPoint x="175" y="400" as="sourcePoint" />
            <mxPoint x="55" y="400" as="targetPoint" />
          </mxGeometry>
        </mxCell>
        <mxCell id="bbrAlsQB3KGbsBwekGWN-18" value="CAR_DELETED" style="edgeLabel;html=1;align=center;verticalAlign=middle;resizable=0;points=[];" vertex="1" connectable="0" parent="bbrAlsQB3KGbsBwekGWN-17">
          <mxGeometry x="0.1374" y="-1" relative="1" as="geometry">
            <mxPoint x="18" as="offset" />
          </mxGeometry>
        </mxCell>
        <mxCell id="bbrAlsQB3KGbsBwekGWN-8" value="rac-api-gateway" style="shape=umlLifeline;perimeter=lifelinePerimeter;whiteSpace=wrap;html=1;container=1;collapsible=0;recursiveResize=0;outlineConnect=0;rounded=1;shadow=0;comic=0;labelBackgroundColor=none;strokeWidth=1;fontFamily=Verdana;fontSize=12;align=center;" vertex="1" parent="1">
          <mxGeometry x="165" y="50" width="100" height="440" as="geometry" />
        </mxCell>
        <mxCell id="bbrAlsQB3KGbsBwekGWN-9" value="" style="endArrow=classic;html=1;rounded=0;" edge="1" parent="bbrAlsQB3KGbsBwekGWN-8" source="bbrAlsQB3KGbsBwekGWN-7">
          <mxGeometry width="50" height="50" relative="1" as="geometry">
            <mxPoint y="120" as="sourcePoint" />
            <mxPoint x="50" y="70" as="targetPoint" />
          </mxGeometry>
        </mxCell>
        <mxCell id="bbrAlsQB3KGbsBwekGWN-10" value="RENT CAR" style="edgeLabel;html=1;align=center;verticalAlign=middle;resizable=0;points=[];" vertex="1" connectable="0" parent="bbrAlsQB3KGbsBwekGWN-9">
          <mxGeometry x="-0.0351" relative="1" as="geometry">
            <mxPoint as="offset" />
          </mxGeometry>
        </mxCell>
        <mxCell id="bbrAlsQB3KGbsBwekGWN-14" value="&lt;font style=&quot;font-size: 20px;&quot;&gt;RENT CAR&lt;/font&gt;" style="text;html=1;strokeColor=default;fillColor=none;align=center;verticalAlign=middle;whiteSpace=wrap;rounded=0;strokeWidth=3;" vertex="1" parent="1">
          <mxGeometry x="20" y="10" width="420" height="30" as="geometry" />
        </mxCell>
      </root>
    </mxGraphModel>
  </diagram>
</mxfile>
